<svg width="181" height="134" viewBox="0 0 181 134" fill="none" xmlns="http://www.w3.org/2000/svg">
<path d="M66.1148 103.804C66.1148 103.804 32.0198 103.804 27.2538 102.338C16.5794 99.0534 4.52384 93.1723 3.05738 73.3753C1.59092 53.5782 28.7203 44.0462 28.7203 44.0462C28.7203 44.0462 26.154 30.6786 40.0853 23.8825C55.4831 16.371 63.9151 28.2818 63.9151 28.2818C63.9151 28.2818 79.3129 0.78609 106.442 3.71899C151.031 8.53939 150.802 47.3457 150.802 47.3457C150.802 47.3457 164.458 49.1587 170.966 57.2442C176.738 64.4141 178.406 70.8495 177.199 79.9742C175.67 91.5278 170.662 101.518 159.235 103.804C150.069 105.637 113.775 103.804 113.775 103.804" stroke="#A2B692" stroke-width="5.13258"/>
<rect x="87.3783" y="59.8108" width="7.33226" height="73.3226" rx="3.66613" fill="#A2B692" stroke="#A2B692" stroke-width="0.733226"/>
<rect x="87.519" y="61.7532" width="7.33226" height="29.329" rx="3.66613" transform="rotate(-33.0746 87.519 61.7532)" fill="#A2B692" stroke="#A2B692" stroke-width="0.733226"/>
<rect x="91.32" y="57.7626" width="7.33226" height="29.329" rx="3.66613" transform="rotate(42.7834 91.32 57.7626)" fill="#A2B692" stroke="#A2B692" stroke-width="0.733226"/>
</svg>
